<svg width="60" height="60" viewBox="0 0 60 60" fill="none" xmlns="http://www.w3.org/2000/svg">
<path d="M15 20C15 17.2386 17.2386 15 20 15H40C42.7614 15 45 17.2386 45 20V40C45 42.7614 42.7614 45 40 45H20C17.2386 45 15 42.7614 15 40V20Z" stroke="white" stroke-width="2" stroke-linecap="round" stroke-linejoin="round"/>
<path d="M35.9997 29.055C36.3794 31.6154 35.0743 34.1308 32.7622 35.2945C30.4501 36.4582 27.6523 36.008 25.822 34.1777C23.9917 32.3474 23.5415 29.5496 24.7052 27.2376C25.869 24.9255 28.3843 23.6203 30.9447 24C33.5592 24.3877 35.612 26.4405 35.9997 29.055Z" stroke="white" stroke-width="2" stroke-linecap="round" stroke-linejoin="round"/>
<path d="M38.25 21.75H38.265" stroke="white" stroke-width="2" stroke-linecap="round" stroke-linejoin="round"/>
<circle cx="30" cy="30" r="29" stroke="black" stroke-width="2"/>
</svg>
