<svg xmlns="http://www.w3.org/2000/svg" width="33.429" height="31.555" viewBox="0 0 33.429 31.555">
  <g id="rice" transform="translate(0 -0.445)">
    <g id="Group_92" data-name="Group 92" transform="translate(1 1)">
      <path id="Path_95" data-name="Path 95" d="M10.2,26.286H23.233A15.7,15.7,0,0,0,32.429,12H1a15.7,15.7,0,0,0,9.2,14.286Z" transform="translate(-1 3.714)" fill="none" stroke="#fff" stroke-linecap="square" stroke-miterlimit="10" stroke-width="2"/>
      <line id="Line_1" data-name="Line 1" y1="8.571" x2="5.714" transform="translate(25.714)" fill="none" stroke="#fff" stroke-miterlimit="10" stroke-width="2"/>
      <line id="Line_2" data-name="Line 2" y1="7.143" x2="2.55" transform="translate(20.307 1.429)" fill="none" stroke="#fff" stroke-miterlimit="10" stroke-width="2"/>
      <path id="Path_96" data-name="Path 96" d="M28.4,10.714a4.271,4.271,0,0,0-7.176-1.476A4.231,4.231,0,0,0,15.113,7a4.263,4.263,0,0,0-7.646.883c-.086-.006-.167-.026-.254-.026a4.286,4.286,0,0,0-4.042,2.858" transform="translate(-0.07 0.714)" fill="none" stroke="#fff" stroke-linecap="square" stroke-miterlimit="10" stroke-width="2"/>
      <circle id="Ellipse_18" data-name="Ellipse 18" cx="1.429" cy="1.429" r="1.429" transform="translate(2.857 1.429)" fill="#fff"/>
      <circle id="Ellipse_19" data-name="Ellipse 19" cx="1.429" cy="1.429" r="1.429" transform="translate(14.286)" fill="#fff"/>
    </g>
  </g>
</svg>
