<svg width="60" height="60" viewBox="0 0 60 60" fill="none" xmlns="http://www.w3.org/2000/svg">
<path d="M45 23.3333V36.6667C45 41.269 41.269 45 36.6667 45L23.3333 45C18.731 45 15 41.269 15 36.6667V23.3333C15 18.731 18.731 15 23.3333 15H36.6667C41.269 15 45 18.731 45 23.3333Z" stroke="white" stroke-width="1.5" stroke-linecap="round" stroke-linejoin="round"/>
<path d="M25.6 30C21.9549 30 19 32.6863 19 36C19 39.3137 21.9549 42 25.6 42C29.2451 42 32.2 39.3137 32.2 36V18C32.9326 20 35.72 24 41 24" stroke="white" stroke-width="1.5" stroke-linecap="round" stroke-linejoin="round"/>
<circle cx="30" cy="30" r="29" stroke="black" stroke-width="2"/>
</svg>
