<svg width="60" height="60" viewBox="0 0 60 60" fill="none" xmlns="http://www.w3.org/2000/svg">
<path d="M48.7813 15.0172C47.1803 16.1465 45.4077 17.0102 43.5316 17.5751C41.4691 15.2036 38.1455 14.372 35.2092 15.4927C32.2729 16.6135 30.3485 19.4481 30.3907 22.5908L30.3907 24.2626C24.4232 24.4174 18.7745 21.5742 15.3438 16.689C15.3438 16.689 8.65624 31.7359 23.7031 38.4235C20.26 40.7607 16.1582 41.9326 12 41.7672C27.0469 50.1266 45.4376 41.7672 45.4376 22.5406C45.436 22.0749 45.3913 21.6104 45.3038 21.153C47.0101 19.4702 48.2143 17.3456 48.7813 15.0172Z" stroke="white" stroke-width="2" stroke-linecap="round" stroke-linejoin="round"/>
<circle cx="30" cy="30" r="29" stroke="black" stroke-width="2"/>
</svg>
